<?xml version="1.0" encoding="utf-8"?>
<!-- Generator: Adobe Illustrator 28.2.0, SVG Export Plug-In . SVG Version: 6.00 Build 0)  -->
<svg version="1.1" id="Layer_1" xmlns="http://www.w3.org/2000/svg" xmlns:xlink="http://www.w3.org/1999/xlink" x="0px" y="0px"
	 viewBox="0 0 1024 1024" style="enable-background:new 0 0 1024 1024;" xml:space="preserve">
<style type="text/css">
	.st0{fill:url(#SVGID_1_);}
	.st1{fill:url(#SVGID_00000056406603258661286300000013178342981101309864_);}
	.st2{fill:url(#SVGID_00000150803013064990575600000002424364304877610163_);}
</style>
<g>
	
		<linearGradient id="SVGID_1_" gradientUnits="userSpaceOnUse" x1="1203.9354" y1="886.7234" x2="1204.4369" y2="886.7234" gradientTransform="matrix(1 0 0.035 1 -17.9231 0)">
		<stop  offset="0" style="stop-color:#FF7BAC"/>
		<stop  offset="1" style="stop-color:#FF7BAC;stop-opacity:0"/>
	</linearGradient>
	<path class="st0" d="M353.58,824.84c-34.97-26.85-76.42-24.85-94.98-23.27c-19.81,1.68-39.7,6.19-58.28,13.54l5.52,157.58h177.81
		c-1.22-39.56-2.43-79.12-3.65-118.69C375.29,846.52,366.95,835.11,353.58,824.84z"/>
	
		<linearGradient id="SVGID_00000000915670450033842950000007140532407414174350_" gradientUnits="userSpaceOnUse" x1="189.7097" y1="512" x2="866.1779" y2="512" gradientTransform="matrix(1 0 0.035 1 -17.9231 0)">
		<stop  offset="0" style="stop-color:#800081"/>
		<stop  offset="0.2812" style="stop-color:#A228A3;stop-opacity:0.8875"/>
		<stop  offset="0.7694" style="stop-color:#D969D9;stop-opacity:0.6922"/>
		<stop  offset="1" style="stop-color:#EE82EE;stop-opacity:0.6"/>
	</linearGradient>
	<path style="fill:url(#SVGID_00000000915670450033842950000007140532407414174350_);" d="M674.12,590.4
		c-1.89-3.41-0.72-7.52,2.6-9.11c22.49-10.77,42.87-23.32,61.15-37.65c19.91-15.61,36.87-33.97,50.92-55.06
		c13.62-20.66,23.86-44.17,30.75-70.55c6.87-26.38,9.74-56.02,8.59-88.92c-1.59-45.56-10.92-85.64-27.94-120.23
		s-40.5-63.48-70.43-86.69c-30.34-23.2-66.4-40.81-108.16-52.84c-41.76-12.02-88.18-18.03-139.21-18.03H180.14
		c-3.66,0-6.45,2.9-6.32,6.55l25.8,736.89c0.16,4.7,4.94,8.11,9.33,6.69c1.17-0.38,2.34-0.74,3.51-1.1
		c34.2-10.41,72.97-13.75,108.28-3.18c16.72,5.01,32.64,13.42,45.4,25.66c0.25,0.24,0.5,0.48,0.74,0.72
		c4.45,4.37,11.61,1.61,11.4-4.42l-6.45-184.15c-0.13-3.65,2.67-6.55,6.32-6.55h123.93c2.63,0,5.13,1.52,6.42,3.91l181.23,336.44
		c1.28,2.38,3.79,3.91,6.42,3.91h179.6c3.66,0,6.45-2.9,6.32-6.55l0,0c-0.04-1.11-0.35-2.21-0.9-3.2L674.12,590.4z M643.48,396.2
		c-5.11,16.45-12.95,30.58-23.5,42.39c-12.58,14.77-29.17,26.05-49.77,33.86c-20.6,7.81-44.62,11.7-72.04,11.7h-94.32
		c-20.39,0-37.89-16.9-38.61-37.28l-7.58-216.52c-0.68-19.39,14.16-34.76,33.57-34.76h96.21c24.47,0,46.29,2.95,65.48,8.86
		c19.19,5.91,35.52,14.34,48.98,25.31c15.19,12.23,26.81,27.73,34.85,46.52s12.49,40.39,13.35,64.86
		C650.81,361.39,648.6,379.75,643.48,396.2z"/>
</g>
<linearGradient id="SVGID_00000056418406202652894490000011246250484565500855_" gradientUnits="userSpaceOnUse" x1="509" y1="923" x2="509" y2="923">
	<stop  offset="0" style="stop-color:#FF7BAC"/>
	<stop  offset="1" style="stop-color:#FF7BAC;stop-opacity:0"/>
</linearGradient>
<path style="fill:url(#SVGID_00000056418406202652894490000011246250484565500855_);" d="M509,923"/>
</svg>
